# xmcd
#
# Track frame offsets:
#	150
#	16102
#	32002
#
# Disc length: 635 seconds
#
# Revision: 0
# Processed by: cddbd v1.5.2PL0 Copyright (c) Steve Scherf et al.
# Submitted via: audiograbber 1.83.01
#
DISCID=15027903
DTITLE=Various Artist - Heimat deine Sterne
DYEAR=2004
DGENRE=Volksmusik
TTITLE0=Heimat Deine Sterne
TTITLE1=Heimat, Deine Sterne
TTITLE2=Du bist der Mann meines Lebens
EXTD=<http://wwww.hit-radio24.de> \n
EXTT0=
EXTT1=
EXTT2=
PLAYORDER=
